<svg width="78" height="56" viewBox="0 0 78 56" fill="none" xmlns="http://www.w3.org/2000/svg">
<path d="M18.3666 32.4709L16.9297 44.9109L15.6546 55.9194L15.6445 56L15.5737 55.9295H15.5636V55.9194L0 40.1023L1.09289 39.7494L18.2452 32.5214L18.3666 32.4709Z" fill="#C42020"/>
<path d="M77.9999 26.1602L74.8528 53.2579L15.6546 55.9193L15.5736 55.9294H15.5635V55.9193L16.8284 44.8806L18.2451 32.5213L18.5588 29.7591L71.8372 26.5332L77.9999 26.1602Z" fill="black"/>
<path d="M42.8354 47.9048L37.2293 48.2576C37.1484 48.2576 37.0876 48.2072 37.0674 48.1366L35.7721 41.9872C35.7316 41.8158 35.4787 41.8259 35.4685 42.0074L34.9929 48.2677C34.9828 48.3483 34.9221 48.4088 34.8513 48.4088L29.2249 48.7717C29.1541 48.7717 29.0832 48.7314 29.063 48.6508L26.0171 36.8963C25.9968 36.8056 26.0575 36.7048 26.1587 36.7048L30.1154 36.4527C30.1964 36.4527 30.2571 36.5031 30.2773 36.5737L31.7649 43.58C31.8053 43.7514 32.0583 43.7413 32.0684 43.5598L32.6452 36.4225C32.6554 36.3418 32.7161 36.2814 32.7869 36.2814L37.6543 35.9688C37.7353 35.9688 37.796 36.0193 37.8162 36.0898L39.3038 43.1062C39.3443 43.2776 39.5972 43.2675 39.6074 43.086L40.2044 35.9386C40.2145 35.858 40.2752 35.7975 40.3461 35.7975L44.3027 35.5454C44.4039 35.5354 44.4748 35.6261 44.4646 35.7168L42.9467 47.7636C42.967 47.8443 42.9063 47.8947 42.8354 47.9048Z" fill="white"/>
<path d="M46.4175 35.4144L50.3742 35.1623C50.4552 35.1523 50.5361 35.2228 50.5361 35.3035L51.3052 47.1991C51.3153 47.2797 51.2445 47.3604 51.1635 47.3604L47.2069 47.6124C47.1259 47.6225 47.0449 47.5519 47.0449 47.4713L46.2759 35.5757C46.2657 35.495 46.3366 35.4244 46.4175 35.4144Z" fill="white"/>
<path d="M66.2616 46.4128L60.868 46.7556C60.8072 46.7556 60.7465 46.7254 60.7162 46.675L56.7797 39.3461C56.6988 39.1948 56.4762 39.2654 56.4863 39.4267L56.9619 46.8463C56.972 46.927 56.9012 47.0076 56.8202 47.0076L53.2278 47.2395C53.1469 47.2496 53.0659 47.179 53.0659 47.0984L52.2969 35.2028C52.2867 35.1221 52.3576 35.0415 52.4385 35.0415L57.8322 34.6987C57.8929 34.6987 57.9536 34.729 57.9839 34.7794L61.9204 42.1083C62.0013 42.2595 62.224 42.1889 62.2138 42.0276L61.7382 34.608C61.7281 34.5273 61.7989 34.4467 61.8799 34.4467L65.4723 34.2148C65.5532 34.2047 65.6342 34.2753 65.6342 34.356L66.4033 46.2516C66.4134 46.3322 66.3527 46.4028 66.2616 46.4128Z" fill="white"/>
<path opacity="0.2" d="M74.9035 26.4827C73.6588 26.6541 72.4344 26.9061 71.1694 26.9162C70.3295 26.9263 70.3295 25.6259 71.1694 25.6158C71.3212 25.6158 71.473 25.6057 71.6248 25.5956C71.5438 25.5049 71.4933 25.3839 71.473 25.2629L18.5488 29.7591L18.2351 32.5213L0 40.1022L16.8285 44.8806L16.9297 44.9108L17.041 44.9511L75.0856 26.7953C74.9945 26.7045 74.9338 26.5936 74.9035 26.4827Z" fill="black"/>
<path d="M73.4362 0L71.898 25.2328L71.8171 26.6542L71.7867 27.1784L68.4574 27.7732L0 40.1022L2.98521 12.3795L73.4362 0Z" fill="#DC2424"/>
<g opacity="0.2">
<path d="M20.6738 20.3233L15.4523 21.1902C15.1689 21.2407 14.9766 21.5028 15.0272 21.785L15.1993 22.8335C15.2499 23.1157 15.513 23.3073 15.7963 23.2569L20.3601 22.5008C20.6435 22.4504 20.9066 22.6419 20.9572 22.9242L21.2304 24.5371C21.281 24.8194 21.0887 25.0815 20.8054 25.1319L16.2416 25.888C15.9582 25.9384 15.766 26.2005 15.8165 26.4828L16.2112 28.8619C16.2618 29.1442 16.0695 29.4063 15.7862 29.4567L13.1754 29.8902C12.8921 29.9406 12.629 29.749 12.5784 29.4668L10.9593 19.7587C10.9087 19.4765 11.1009 19.2144 11.3843 19.164L20.2387 17.6921C20.5221 17.6417 20.7852 17.8333 20.8357 18.1155L21.109 19.7285C21.1495 20.0108 20.9572 20.283 20.6738 20.3233Z" fill="black"/>
<path d="M22.7888 17.2686L25.521 16.8149C25.8044 16.7645 26.0675 16.9561 26.1181 17.2383L27.7473 26.9564C27.7979 27.2387 27.6056 27.5008 27.3223 27.5512L24.59 28.0049C24.3067 28.0553 24.0436 27.8637 23.993 27.5815L22.3638 17.8634C22.3233 17.5811 22.5156 17.319 22.7888 17.2686Z" fill="black"/>
<path d="M39.4147 16.6941C39.4653 16.9763 39.273 17.2385 38.9897 17.2889L31.7645 18.4885C31.6936 18.4986 31.6633 18.549 31.6734 18.6296L32.5437 23.8516C32.5538 23.9322 32.6044 23.9726 32.6752 23.9524L36.6724 23.2871C36.7432 23.277 36.7735 23.2266 36.7634 23.1459L36.389 20.8979C36.3384 20.6156 36.5307 20.3535 36.814 20.3031L39.4248 19.8696C39.7082 19.8192 39.9713 20.0107 40.0219 20.293L40.4671 22.9443C40.6088 23.7709 40.4671 24.4061 40.0522 24.8597C39.6373 25.3133 39.02 25.6057 38.1903 25.7468L32.068 26.765C31.2383 26.9061 30.5501 26.8255 30.0138 26.5331C29.4775 26.2408 29.1334 25.6763 29.0019 24.8496L28.0001 18.8313C27.8584 18.0046 28.0001 17.3695 28.415 16.9159C28.8298 16.4622 29.4471 16.1699 30.2769 16.0287L38.5647 14.6577C38.848 14.6073 39.1111 14.7988 39.1617 15.0811L39.4147 16.6941Z" fill="black"/>
<path d="M53.2989 23.2365L50.6881 23.67C50.4048 23.7204 50.1417 23.5289 50.0911 23.2466L49.5851 20.2021C49.5345 19.9199 49.2714 19.7283 48.988 19.7787L45.5373 20.3533C45.254 20.4038 45.0617 20.6659 45.1123 20.9481L45.6183 23.9926C45.6689 24.2749 45.4766 24.537 45.1933 24.5874L42.5825 25.0209C42.2991 25.0713 42.036 24.8797 41.9854 24.5975L40.3562 14.8794C40.3056 14.5971 40.4979 14.335 40.7812 14.2846L43.392 13.8511C43.6754 13.8007 43.9385 13.9922 43.9891 14.2745L44.4951 17.2988C44.5456 17.5811 44.8087 17.7726 45.0921 17.7222L48.5428 17.1476C48.8261 17.0972 49.0184 16.8351 48.9678 16.5528L48.4618 13.5285C48.4112 13.2462 48.6035 12.9841 48.8869 12.9337L51.5078 12.5002C51.7911 12.4498 52.0542 12.6414 52.1048 12.9236L53.734 22.6417C53.7745 22.924 53.5822 23.1962 53.2989 23.2365Z" fill="black"/>
<path d="M63.5801 13.206L61.1717 13.6093C60.8884 13.6597 60.6961 13.9218 60.7467 14.204L61.9307 21.291C61.9813 21.5733 61.789 21.8354 61.5057 21.8858L58.9758 22.3092C58.6925 22.3596 58.4294 22.168 58.3788 21.8858L57.1948 14.7988C57.1442 14.5166 56.8811 14.325 56.5978 14.3754L54.1894 14.7787C53.906 14.8291 53.6429 14.6375 53.5923 14.3553L53.3191 12.7423C53.2685 12.46 53.4608 12.1979 53.7441 12.1475L63.1349 10.585C63.4182 10.5346 63.6813 10.7261 63.7319 11.0084L64.0052 12.6213C64.0558 12.8935 63.8635 13.1556 63.5801 13.206Z" fill="black"/>
</g>
<path d="M19.6314 19.6378L14.4098 20.5048C14.1264 20.5552 13.9342 20.8173 13.9848 21.0996L14.1568 22.148C14.2074 22.4302 14.4705 22.6218 14.7538 22.5714L19.3177 21.8153C19.601 21.7649 19.8641 21.9564 19.9147 22.2387L20.1879 23.8517C20.2385 24.1339 20.0463 24.396 19.7629 24.4464L15.1991 25.2025C14.9157 25.2529 14.7235 25.515 14.7741 25.7973L15.1687 28.1764C15.2193 28.4587 15.0271 28.7208 14.7437 28.7712L12.1329 29.2047C11.8496 29.2551 11.5865 29.0635 11.5359 28.7813L9.91678 19.0632C9.86618 18.7809 10.0584 18.5188 10.3418 18.4684L19.1962 16.9966C19.4796 16.9462 19.7427 17.1377 19.7933 17.42L20.0665 19.0329C20.107 19.3253 19.9147 19.5874 19.6314 19.6378Z" fill="white"/>
<path d="M21.7465 16.5733L24.4788 16.1196C24.7621 16.0692 25.0252 16.2608 25.0758 16.543L26.705 26.2611C26.7556 26.5434 26.5634 26.8055 26.28 26.8559L23.5478 27.3095C23.2644 27.36 23.0013 27.1684 22.9507 26.8861L21.3215 17.1681C21.2811 16.8858 21.4632 16.6237 21.7465 16.5733Z" fill="white"/>
<path d="M38.3625 15.9985C38.413 16.2808 38.2208 16.5429 37.9374 16.5933L30.7122 17.7929C30.6414 17.803 30.611 17.8534 30.6211 17.9341L31.4914 23.156C31.5015 23.2367 31.5521 23.277 31.623 23.2568L35.6201 22.5915C35.6909 22.5814 35.7213 22.531 35.7112 22.4504L35.3368 20.2023C35.2862 19.92 35.4784 19.6579 35.7618 19.6075L38.3726 19.174C38.6559 19.1236 38.919 19.3152 38.9696 19.5974L39.4149 22.2487C39.5565 23.0754 39.4149 23.7105 39 24.1641C38.5851 24.6178 37.9678 24.9101 37.138 25.0513L31.0158 26.0694C30.186 26.2106 29.4979 26.1299 28.9616 25.8376C28.4252 25.5452 28.0812 24.9807 27.9496 24.1541L26.9478 18.1357C26.8061 17.3091 26.9478 16.6739 27.3627 16.2203C27.7776 15.7667 28.3949 15.4743 29.2247 15.3332L37.5124 13.9622C37.7958 13.9118 38.0589 14.1033 38.1095 14.3856L38.3625 15.9985Z" fill="white"/>
<path d="M52.2564 22.5412L49.6456 22.9747C49.3623 23.0251 49.0992 22.8336 49.0486 22.5513L48.5426 19.5068C48.492 19.2246 48.2289 19.033 47.9456 19.0834L44.4949 19.658C44.2115 19.7084 44.0193 19.9705 44.0698 20.2528L44.5758 23.2973C44.6264 23.5795 44.4341 23.8417 44.1508 23.8921L41.54 24.3255C41.2567 24.3759 40.9936 24.1844 40.943 23.9021L39.3138 14.184C39.2632 13.9018 39.4554 13.6397 39.7388 13.5893L42.3496 13.1558C42.6329 13.1054 42.896 13.2969 42.9466 13.5792L43.4526 16.6035C43.5032 16.8858 43.7663 17.0773 44.0496 17.0269L47.5003 16.4523C47.7837 16.4019 47.9759 16.1398 47.9253 15.8575L47.4194 12.8332C47.3688 12.5509 47.561 12.2888 47.8444 12.2384L50.4552 11.8049C50.7385 11.7545 51.0016 11.9461 51.0522 12.2283L52.6814 21.9464C52.732 22.2287 52.5398 22.5009 52.2564 22.5412Z" fill="white"/>
<path d="M62.5377 12.5105L60.1293 12.9138C59.8459 12.9642 59.6537 13.2263 59.7043 13.5086L60.8882 20.5955C60.9388 20.8778 60.7465 21.1399 60.4632 21.1903L57.9334 21.6137C57.65 21.6641 57.3869 21.4726 57.3363 21.1903L56.1524 14.1033C56.1018 13.8211 55.8387 13.6295 55.5553 13.6799L53.1469 14.0832C52.8636 14.1336 52.6005 13.942 52.5499 13.6598L52.2766 12.0468C52.226 11.7645 52.4183 11.5024 52.7017 11.452L62.1025 9.87939C62.3859 9.82899 62.649 10.0205 62.6996 10.3028L62.9728 11.9158C63.0133 12.198 62.821 12.4601 62.5377 12.5105Z" fill="white"/>
</svg>
